# xmcd CD database file
#
# Track frame offsets:
#	150
#	24902
#	37507
#	59455
#	86385
#	107470
#	127207
#	143455
#	170005
#	194492
#	217502
#	237025
#
# Disc length: 3394 seconds
#
# Revision: 0
# Processed by: cddbd v1.5.1PL0 Copyright (c) Steve Scherf et al.
# Submitted via: CDex 1.51
#
DISCID=8e0d400c
DTITLE=Various Artist - Columbia's For Lovers Only
DYEAR=1988
DGENRE=Jazz
TTITLE0=Kirk Whalum - The Wave
TTITLE1=Grover Washington Jr. - Maddie's Blues
TTITLE2=Jean-Luc Ponty - Introspective Perceptions
TTITLE3=Harrison Blanchard - Grace of God
TTITLE4=Jane Ira Bloom - More than Sinatra
TTITLE5=Steve Gadd - Morning Love
TTITLE6=Wynton Marsalis - In the Afterglow
TTITLE7=Harry Connick, Jr. - Little Clown
TTITLE8=Full Circle - Croton Drive
TTITLE9=Branford Marsalis - Peacocks
TTITLE10=Ronnie Laws - Still
TTITLE11=Music from The Cosby Show (Stu Gardner) - Tune for Jr. Lovers
EXTD=YEAR: 1988
EXTT0=
EXTT1=
EXTT2=
EXTT3=
EXTT4=
EXTT5=
EXTT6=
EXTT7=
EXTT8=
EXTT9=
EXTT10=
EXTT11=
PLAYORDER=
